<svg width="30" height="30" viewBox="0 0 30 30" fill="none" xmlns="http://www.w3.org/2000/svg">
<path d="M4.98432 26.6568C4.87539 26.5477 4.72422 26.4851 4.57011 26.4851C4.41601 26.4851 4.26483 26.5477 4.15585 26.6568C4.04686 26.7658 3.98416 26.917 3.98416 27.0711C3.98416 27.2252 4.0468 27.3763 4.15585 27.4853C4.26483 27.5943 4.41601 27.657 4.57011 27.657C4.72422 27.657 4.87539 27.5943 4.98432 27.4853C5.09331 27.3763 5.15607 27.2252 5.15607 27.0711C5.15607 26.917 5.09337 26.7658 4.98432 26.6568Z" fill="#FFBB01"/>
<path d="M27.5115 10.7193C27.4025 10.6102 27.2519 10.5476 27.0972 10.5476C26.9431 10.5476 26.7919 10.6102 26.6829 10.7193C26.574 10.8283 26.5113 10.9795 26.5113 11.1336C26.5113 11.2877 26.574 11.4388 26.6829 11.5478C26.7919 11.6568 26.9431 11.7195 27.0972 11.7195C27.2519 11.7195 27.4025 11.6568 27.5115 11.5478C27.621 11.4388 27.6837 11.2877 27.6837 11.1336C27.6837 10.9795 27.621 10.8283 27.5115 10.7193Z" fill="#FFBB01"/>
<path d="M29.8283 0.171625C29.7184 0.0617594 29.5693 0 29.4138 0L14.9998 0.000761738C14.6762 0.000761738 14.4139 0.263151 14.4139 0.586714V2.26236L8.85968 3.75062C8.54708 3.83441 8.36157 4.15569 8.44536 4.46824L11.324 15.2112L8.83373 17.7014C8.51678 17.2387 7.98462 16.9343 7.38267 16.9343H1.75771C0.788425 16.9343 -9.15527e-05 17.7229 -9.15527e-05 18.6921V28.2429C-9.15527e-05 29.2122 0.788425 30.0008 1.75771 30.0008H7.38273C8.20617 30.0008 8.89888 29.4314 9.08873 28.666L9.78543 29.2735C10.3233 29.7425 11.0124 30.0008 11.726 30.0008H29.414C29.7375 30.0008 29.9999 29.7384 29.9999 29.4149V0.585952C29.9998 0.430558 29.9381 0.281491 29.8283 0.171625ZM7.96857 28.243C7.96857 28.566 7.70571 28.8289 7.38262 28.8289H1.75765C1.43455 28.8289 1.1717 28.5661 1.1717 28.243V18.6922C1.1717 18.3691 1.43455 18.1062 1.75765 18.1062H3.98421V24.8561C3.98421 25.1797 4.2466 25.4421 4.57016 25.4421C4.89372 25.4421 5.15611 25.1797 5.15611 24.8561V18.1062H7.38267C7.70577 18.1062 7.96863 18.3691 7.96863 18.6922V28.243H7.96857ZM9.72894 4.73092L14.4139 3.47558V5.64682L14.0212 5.75206C13.871 5.79231 13.7431 5.89046 13.6654 6.02505C13.5877 6.15965 13.5666 6.31955 13.6068 6.46968C13.832 7.30999 13.3316 8.17679 12.4912 8.40197C12.3409 8.44228 12.2128 8.54061 12.1352 8.67549C12.0575 8.81032 12.0366 8.97052 12.0772 9.12076L14.3612 17.5783H13.1852L12.5791 15.2073C12.5599 15.1318 12.5261 15.0623 12.4809 15.0018L9.72894 4.73092ZM14.4139 8.33394V13.2783L13.3451 9.32104C13.7916 9.09052 14.1569 8.74563 14.4139 8.33394ZM22.8319 28.8289H11.7259C11.2955 28.8289 10.8799 28.6731 10.5555 28.3903L9.14047 27.1562V19.0521L11.6986 16.4939L12.1626 18.3092C12.2289 18.5686 12.4625 18.75 12.7303 18.75L24.2503 18.7507C24.7027 18.7507 25.0706 19.1187 25.0706 19.571C25.0706 20.0234 24.7027 20.3914 24.2503 20.3914H18.3474C18.0239 20.3914 17.7615 20.6538 17.7615 20.9773C17.7615 21.3009 18.0239 21.5633 18.3474 21.5633H26.0843C26.5367 21.5633 26.9047 21.9313 26.9047 22.3836C26.9047 22.836 26.5367 23.2039 26.0843 23.2039H18.3474C18.0239 23.2039 17.7615 23.4663 17.7615 23.7899C17.7615 24.1135 18.0239 24.3759 18.3474 24.3759H24.8306C25.2829 24.3759 25.6509 24.7438 25.6509 25.1962C25.6509 25.6485 25.2829 26.0165 24.8306 26.0165H18.3474C18.0239 26.0165 17.7615 26.2789 17.7615 26.6025C17.7615 26.926 18.0239 27.1884 18.3474 27.1884H22.8319C23.2843 27.1884 23.6522 27.5564 23.6522 28.0088C23.6522 28.4609 23.2842 28.8289 22.8319 28.8289ZM28.828 28.8289H28.8279H24.6466C24.7603 28.5785 24.8241 28.3009 24.8241 28.0085C24.8241 27.7161 24.7603 27.4386 24.6466 27.1882H24.8306C25.9291 27.1882 26.8228 26.2945 26.8228 25.196C26.8228 24.8756 26.7463 24.5728 26.6113 24.3044C27.4548 24.0727 28.0765 23.2995 28.0765 22.3835C28.0765 21.9391 27.9301 21.5283 27.6832 21.1966V13.7703C27.6832 13.4467 27.4208 13.1843 27.0973 13.1843C26.7737 13.1843 26.5113 13.4467 26.5113 13.7703V20.438C26.3736 20.4078 26.2308 20.3914 26.0842 20.3914H26.065C26.1786 20.141 26.2424 19.8634 26.2424 19.571C26.2424 18.4725 25.3487 17.5789 24.2502 17.5789H23.3083C24.3085 17.1499 25.0109 16.1558 25.0109 15.0004C25.0109 13.4541 23.753 12.1961 22.2067 12.1961C20.6605 12.1961 19.4025 13.4541 19.4025 15.0004C19.4025 16.1558 20.105 17.1499 21.1052 17.5789H17.9022V6.43745C18.9489 6.20934 19.7749 5.38344 20.0029 4.33663H24.4105C24.6386 5.38344 25.4645 6.20934 26.5113 6.43745V8.25917C26.5113 8.58274 26.7737 8.84513 27.0972 8.84513C27.4208 8.84513 27.6832 8.58274 27.6832 8.25917V5.91431C27.6832 5.59075 27.4208 5.32836 27.0972 5.32836C26.2273 5.32836 25.5196 4.62059 25.5196 3.75068C25.5196 3.42712 25.2572 3.16473 24.9336 3.16473H19.4798C19.1563 3.16473 18.8939 3.42712 18.8939 3.75068C18.8939 4.62064 18.1862 5.32836 17.3163 5.32836C16.9927 5.32836 16.7303 5.59075 16.7303 5.91431V17.5788H15.5858V1.17255L28.828 1.1719V28.8289ZM22.2069 16.6327C21.3068 16.6327 20.5746 15.9005 20.5746 15.0004C20.5746 14.1004 21.3068 13.3681 22.2069 13.3681C23.1069 13.3681 23.8391 14.1004 23.8391 15.0004C23.8391 15.9004 23.1069 16.6327 22.2069 16.6327Z" fill="#FFBB01"/>
</svg>
