<svg width="30" height="26" viewBox="0 0 30 26" fill="none" xmlns="http://www.w3.org/2000/svg">
<path d="M19.7396 3.75745C19.0121 3.75745 18.3261 4.04362 17.8181 4.54254C17.3101 4.04362 16.624 3.75745 15.8966 3.75745C14.3829 3.75745 13.1514 4.98897 13.1514 6.50268C13.1514 7.89077 13.9346 9.30487 15.4163 10.592C16.5019 11.5351 17.5749 12.0815 17.62 12.1043C17.6823 12.1358 17.7502 12.1515 17.8181 12.1515C17.886 12.1515 17.9539 12.1357 18.0162 12.1043C18.0613 12.0815 19.1343 11.5351 20.2199 10.592C21.7016 9.30487 22.4848 7.89077 22.4848 6.50268C22.4848 4.98897 21.2533 3.75745 19.7396 3.75745ZM17.8181 11.2117C17.0123 10.7559 14.0303 8.90655 14.0303 6.50268C14.0303 5.4736 14.8675 4.63635 15.8966 4.63635C16.5229 4.63635 17.1044 4.94883 17.452 5.47225C17.5334 5.59489 17.6709 5.6686 17.8181 5.6686C17.9653 5.6686 18.1027 5.59489 18.1842 5.47225C18.5318 4.94883 19.1133 4.63635 19.7396 4.63635C20.7687 4.63635 21.606 5.4736 21.606 6.50268C21.6059 8.90655 18.6239 10.7559 17.8181 11.2117Z" fill="#FFBB01"/>
<path d="M26.7423 3.75745H24.3938C24.1511 3.75745 23.9544 3.9542 23.9544 4.1969C23.9544 4.43959 24.1511 4.63635 24.3938 4.63635H26.7423C26.985 4.63635 27.1818 4.43959 27.1818 4.1969C27.1818 3.9542 26.985 3.75745 26.7423 3.75745Z" fill="#FFBB01"/>
<path d="M25.8029 8.45447H24.3938C24.1511 8.45447 23.9544 8.65123 23.9544 8.89392C23.9544 9.13662 24.1511 9.33337 24.3938 9.33337H25.8029C26.0456 9.33337 26.2423 9.13662 26.2423 8.89392C26.2423 8.65123 26.0456 8.45447 25.8029 8.45447Z" fill="#FFBB01"/>
<path d="M26.7423 6.10608H24.3938C24.1511 6.10608 23.9544 6.30284 23.9544 6.54553C23.9544 6.78823 24.1511 6.98499 24.3938 6.98499H26.7423C26.985 6.98499 27.1818 6.78823 27.1818 6.54553C27.1818 6.30284 26.985 6.10608 26.7423 6.10608Z" fill="#FFBB01"/>
<path d="M8.89394 10.7424C9.13664 10.7424 9.3334 10.5457 9.3334 10.303C9.3334 10.0603 9.13664 9.86353 8.89394 9.86353H7.95474C7.71205 9.86353 7.51529 10.0603 7.51529 10.303C7.51529 10.5457 7.71205 10.7424 7.95474 10.7424H8.89394Z" fill="#FFBB01"/>
<path d="M4.19681 10.7424H6.07568C6.31837 10.7424 6.51513 10.5457 6.51513 10.303C6.51513 10.0603 6.31837 9.86353 6.07568 9.86353H4.19681C3.95411 9.86353 3.75735 10.0603 3.75735 10.303C3.75735 10.5457 3.95411 10.7424 4.19681 10.7424Z" fill="#FFBB01"/>
<path d="M4.19681 13.0911H8.8938C9.1365 13.0911 9.33325 12.8943 9.33325 12.6516C9.33325 12.4089 9.1365 12.2122 8.8938 12.2122H4.19681C3.95411 12.2122 3.75735 12.4089 3.75735 12.6516C3.75735 12.8943 3.95411 13.0911 4.19681 13.0911Z" fill="#FFBB01"/>
<path d="M9.33325 15C9.33325 14.7573 9.1365 14.5605 8.8938 14.5605H4.19681C3.95411 14.5605 3.75735 14.7573 3.75735 15C3.75735 15.2427 3.95411 15.4395 4.19681 15.4395H8.8938C9.1365 15.4395 9.33325 15.2427 9.33325 15Z" fill="#FFBB01"/>
<path d="M7.95462 17.7878H15.4697C15.7124 17.7878 15.9091 17.5911 15.9091 17.3484C15.9091 17.1057 15.7124 16.9089 15.4697 16.9089H7.95462C7.71193 16.9089 7.51517 17.1057 7.51517 17.3484C7.51517 17.5911 7.71193 17.7878 7.95462 17.7878Z" fill="#FFBB01"/>
<path d="M4.19681 16.9089C3.95411 16.9089 3.75735 17.1057 3.75735 17.3484C3.75735 17.5911 3.95411 17.7878 4.19681 17.7878H6.07568C6.31837 17.7878 6.51513 17.5911 6.51513 17.3484C6.51513 17.1057 6.31837 16.9089 6.07568 16.9089H4.19681Z" fill="#FFBB01"/>
<path d="M25.8029 10.8031H24.3938C24.1511 10.8031 23.9544 10.9999 23.9544 11.2426C23.9544 11.4852 24.1511 11.682 24.3938 11.682H25.8029C26.0456 11.682 26.2423 11.4852 26.2423 11.2426C26.2423 10.9999 26.0456 10.8031 25.8029 10.8031Z" fill="#FFBB01"/>
<path d="M28.1514 0H12.1817C11.1624 0 10.3332 0.829219 10.3332 1.84852V13.5909C10.3332 14.6102 11.1624 15.4394 12.1817 15.4394H22.333L25.6297 18.7361C25.8041 18.9105 26.0355 19.0029 26.2717 19.0029C26.3889 19.0029 26.5074 18.9801 26.6205 18.9332C26.9615 18.792 27.1818 18.4623 27.1818 18.0933V15.4395H28.1514C29.1707 15.4395 29.9999 14.6102 29.9999 13.5909V1.84852C29.9999 0.829219 29.1707 0 28.1514 0ZM29.121 13.5909C29.121 14.1256 28.6861 14.5605 28.1514 14.5605H26.7423C26.4996 14.5605 26.3029 14.7573 26.3029 15V18.0933C26.3029 18.1037 26.3029 18.1135 26.2842 18.1212C26.2655 18.1289 26.2586 18.122 26.2512 18.1147L22.8258 14.6893C22.7434 14.6068 22.6316 14.5605 22.5151 14.5605H12.1817C11.6471 14.5605 11.2121 14.1256 11.2121 13.5909V1.84852C11.2121 1.31385 11.6471 0.878906 12.1817 0.878906H28.1514C28.686 0.878906 29.121 1.31385 29.121 1.84852V13.5909H29.121Z" fill="#FFBB01"/>
<path d="M19.2272 16.4393C18.9845 16.4393 18.7877 16.6361 18.7877 16.8788V19.697C18.7877 20.2316 18.3528 20.6666 17.8181 20.6666H7.48479C7.36825 20.6666 7.25645 20.7129 7.17407 20.7953L3.74868 24.2207C3.74135 24.2281 3.73432 24.235 3.71569 24.2273C3.697 24.2196 3.697 24.2097 3.697 24.1994V21.1061C3.697 20.8634 3.50024 20.6666 3.25755 20.6666H1.84842C1.31376 20.6666 0.878815 20.2317 0.878815 19.697V7.95459C0.878815 7.41993 1.31376 6.98499 1.84842 6.98499H8.89397C9.13667 6.98499 9.33343 6.78823 9.33343 6.54553C9.33343 6.30284 9.13667 6.10608 8.89397 6.10608H1.84842C0.829127 6.10608 -9.15527e-05 6.9353 -9.15527e-05 7.95459V19.697C-9.15527e-05 20.7163 0.829127 21.5455 1.84842 21.5455H2.81803V24.1993C2.81803 24.5683 3.03835 24.898 3.3793 25.0392C3.49245 25.0861 3.61087 25.1089 3.72817 25.1089C3.9643 25.1089 4.19575 25.0165 4.37012 24.8422L7.66684 21.5455H17.8182C18.8375 21.5455 19.6667 20.7163 19.6667 19.697V16.8788C19.6666 16.6361 19.4699 16.4393 19.2272 16.4393Z" fill="#FFBB01"/>
</svg>
