<svg width="32" height="34" viewBox="0 0 32 34" fill="none" xmlns="http://www.w3.org/2000/svg">
<path d="M16.9644 21.1808C17.5169 21.1253 18.015 20.8315 18.3324 20.3739L23.1546 13.3798C23.3024 13.1653 23.2729 12.8745 23.0837 12.6937C22.8946 12.5134 22.6027 12.4971 22.3951 12.6539L15.625 17.7888C15.1837 18.1254 14.9128 18.6363 14.8822 19.1907C14.8517 19.7451 15.0644 20.2823 15.465 20.6652C15.8298 21.0144 16.3154 21.2013 16.8157 21.19C16.8652 21.1889 16.9145 21.1857 16.9644 21.1808ZM15.9442 19.2496C15.9573 19.0063 16.0767 18.7818 16.2691 18.6349L20.3988 15.5027L17.4575 19.7686C17.3184 19.9691 17.0995 20.098 16.857 20.1226C16.6155 20.144 16.3759 20.0654 16.1992 19.8965C16.0242 19.7287 15.9305 19.4925 15.9442 19.2496Z" fill="#FFBB01"/>
<path d="M28.6518 11.1163C28.6462 11.1052 28.6459 11.0935 28.6398 11.0825C28.6332 11.072 28.623 11.0664 28.6158 11.0565C28.0575 10.1467 27.4023 9.30358 26.6628 8.54265L27.7789 7.37541L28.5476 8.11016L30.7519 5.80345L28.4457 3.59921L26.2409 5.9054L27.0102 6.64066L25.894 7.8079C25.1005 7.1035 24.2291 6.4865 23.2945 5.96986C23.2843 5.96318 23.2782 5.95321 23.2674 5.94707C23.2561 5.94094 23.2444 5.94174 23.2331 5.93614C21.5674 5.02592 19.7057 4.43662 17.7307 4.24987L17.7164 3.61669L18.5139 3.59867C19.247 3.5821 19.8295 2.97267 19.8129 2.23954C19.7964 1.50641 19.1864 0.923924 18.4533 0.940493L13.6685 1.04863C12.9354 1.0652 12.3529 1.67463 12.3695 2.40776C12.386 3.14089 12.9955 3.72339 13.7286 3.70682L14.526 3.6888L14.5399 4.30337C13.9671 4.37748 13.3962 4.48401 12.8324 4.62653C12.5478 4.69839 12.3751 4.98793 12.4475 5.27246C12.5194 5.557 12.8089 5.73024 13.0934 5.65732C13.58 5.5341 14.072 5.4384 14.5656 5.37033L15.1351 5.31331C15.3092 5.29608 15.4695 5.28288 15.6256 5.27191L15.6494 6.32296C15.656 6.61695 15.8991 6.84922 16.1931 6.84258C16.487 6.83594 16.7193 6.59292 16.7127 6.29893L16.689 5.2516C18.6906 5.29838 20.5868 5.79276 22.282 6.63848L21.7783 7.55783C21.6373 7.8158 21.7319 8.13866 21.9893 8.27965C22.0739 8.32615 22.1658 8.34694 22.2562 8.3449C22.4401 8.34074 22.6166 8.24154 22.7111 8.06866L23.2133 7.15147C24.9006 8.16918 26.3456 9.55033 27.4385 11.19L26.545 11.733C26.2947 11.8855 26.2148 12.2123 26.3679 12.4636C26.4706 12.6321 26.6509 12.7232 26.8348 12.719C26.9252 12.717 27.0161 12.6921 27.0985 12.6418L27.9941 12.0971C28.9283 13.776 29.5102 15.6788 29.6364 17.7083L28.5864 17.7321C28.2924 17.7387 28.0601 17.9817 28.0668 18.2757C28.0734 18.5697 28.3164 18.802 28.6104 18.7953L29.6604 18.7716C29.626 20.8048 29.1308 22.7319 28.2733 24.4513L27.354 23.9476C27.0966 23.8066 26.7731 23.9001 26.6322 24.1586C26.4912 24.4166 26.5857 24.7394 26.8432 24.8804L27.7604 25.3826C26.7426 27.0699 25.3615 28.5149 23.7218 29.6078L23.1788 28.7143C23.0258 28.4624 22.6979 28.3831 22.4482 28.5361C22.1968 28.6886 22.117 29.0159 22.27 29.2667L22.8147 30.1624C21.1595 31.0838 19.2875 31.6634 17.2901 31.8005L17.2664 30.7543C17.2598 30.4603 17.0168 30.228 16.7228 30.2346C16.4288 30.2413 16.1965 30.4843 16.2032 30.7783L16.2269 31.8288C15.3772 31.8188 14.5231 31.7317 13.6804 31.5582C13.3928 31.496 13.1114 31.6843 13.0525 31.9718C12.993 32.2593 13.1787 32.5408 13.4662 32.5997C14.5328 32.8203 15.6196 32.9191 16.6951 32.8948C16.7212 32.8942 16.7461 32.8921 16.7722 32.8909C16.7759 32.8909 16.7786 32.8929 16.7818 32.8928C16.786 32.8928 16.7897 32.89 16.794 32.8899C19.3491 32.8146 21.7312 32.0704 23.7788 30.8315C23.7951 30.8237 23.8125 30.8196 23.8283 30.8097C23.8387 30.8031 23.8444 30.7928 23.8543 30.7857C25.9733 29.4857 27.7271 27.653 28.9327 25.4789C28.9425 25.4644 28.955 25.4529 28.9637 25.4368C28.9698 25.4254 28.969 25.4138 28.9741 25.4025C30.1408 23.2697 30.7837 20.8159 30.725 18.2162C30.6662 15.6165 29.9131 13.1941 28.6518 11.1163ZM28.4791 5.10269L29.2479 5.83744L28.5131 6.6067L27.7439 5.87143L28.4791 5.10269ZM15.6016 4.20757L15.5653 2.60149L13.7046 2.64354C13.5584 2.64685 13.436 2.52993 13.4327 2.38373C13.4294 2.23753 13.5463 2.11521 13.6925 2.1119L18.4773 2.00377C18.6235 2.00046 18.7458 2.11738 18.7491 2.26358C18.7524 2.40978 18.6355 2.5321 18.4893 2.53541L16.6286 2.57746L16.6649 4.18354C16.4797 4.18028 16.3031 4.18054 16.133 4.18439C16.1181 4.18473 16.1011 4.18617 16.0862 4.18651C16.0729 4.18681 16.0596 4.18605 16.0463 4.18635C15.9591 4.18832 15.8721 4.19614 15.7849 4.1997C15.7233 4.20269 15.6653 4.20347 15.6016 4.20757Z" fill="#FFBB01"/>
<path d="M11.4445 8.54574L8.78627 8.60581C8.49227 8.61246 8.26 8.85547 8.26665 9.14947C8.27329 9.44346 8.5163 9.67573 8.8103 9.66909L11.4685 9.60901C11.7625 9.60237 11.9948 9.35936 11.9881 9.06536C11.9815 8.77137 11.7385 8.53909 11.4445 8.54574Z" fill="#FFBB01"/>
<path d="M11.5284 12.2671L6.21205 12.3872C5.91805 12.3939 5.68578 12.6369 5.69243 12.9309C5.69907 13.2249 5.94208 13.4571 6.23608 13.4505L11.5525 13.3303C11.8465 13.3237 12.0787 13.0807 12.0721 12.7867C12.0654 12.4927 11.8224 12.2604 11.5284 12.2671Z" fill="#FFBB01"/>
<path d="M11.6125 15.9884L3.63796 16.1686C3.34397 16.1753 3.11169 16.4183 3.11834 16.7123C3.12498 17.0063 3.368 17.2386 3.66199 17.2319L11.6366 17.0517C11.9306 17.0451 12.1628 16.802 12.1562 16.508C12.1495 16.214 11.9065 15.9818 11.6125 15.9884Z" fill="#FFBB01"/>
<path d="M11.6967 19.7101L1.59554 19.9384C1.30155 19.945 1.06927 20.1881 1.07592 20.482C1.08256 20.776 1.32558 21.0083 1.61957 21.0017L11.7207 20.7734C12.0147 20.7667 12.247 20.5237 12.2403 20.2297C12.2337 19.9357 11.9907 19.7035 11.6967 19.7101Z" fill="#FFBB01"/>
<path d="M11.7807 23.4315L4.86938 23.5877C4.57538 23.5943 4.34311 23.8373 4.34975 24.1313C4.3564 24.4253 4.59941 24.6576 4.89341 24.6509L11.8047 24.4947C12.0987 24.4881 12.331 24.2451 12.3243 23.9511C12.3177 23.6571 12.0747 23.4248 11.7807 23.4315Z" fill="#FFBB01"/>
<path d="M11.8649 27.1529L8.14341 27.237C7.84941 27.2437 7.61714 27.4867 7.62379 27.7807C7.63043 28.0747 7.87344 28.307 8.16744 28.3003L11.8889 28.2162C12.1829 28.2096 12.4152 27.9666 12.4085 27.6726C12.4019 27.3786 12.1589 27.1463 11.8649 27.1529Z" fill="#FFBB01"/>
</svg>
